<svg viewBox="0 0 24 24" fill="currentColor" xmlns="http://www.w3.org/2000/svg" class="Uh6_dPAknj7lWADgBC73"><path d="M3 6h11a2 2 0 0 0 2 2h2a2 2 0 0 0 2-2h1a1 1 0 0 0 0-2h-1a2 2 0 0 0-2-2h-2a2 2 0 0 0-2 2H3a1 1 0 0 0 0 2zm13-2h2v2h-2zm5 7h-9a2 2 0 0 0-2-2H8a2 2 0 0 0-2 2H3a1 1 0 0 0 0 2h3a2 2 0 0 0 2 2h2a2 2 0 0 0 2-2h9a1 1 0 0 0 0-2zM8 13v-2h2v2zm13 5h-3a2 2 0 0 0-2-2h-2a2 2 0 0 0-2 2H3a1 1 0 0 0 0 2h9a2 2 0 0 0 2 2h2a2 2 0 0 0 2-2h3a1 1 0 0 0 0-2zm-7 2v-2h2v2z" data-name="Layer 62"></path></svg>